<svg xmlns="http://www.w3.org/2000/svg" viewBox="0 0 446.54 219.02">
  <g id="Layer_2" data-name="Layer 2">
    <g id="Layer_1-2" data-name="Layer 1">
      <g>
        <g>
          <path d="M171.24,0V53.72a50.75,50.75,0,0,0,50.63,50.38h2.76a50.74,50.74,0,0,0,50.68-50.68V0Zm41.58,4.13h39.3V52.57a28.85,28.85,0,0,1-39.85,26.68,13.32,13.32,0,0,1-1.27-.57,10.68,10.68,0,0,1-1.22-.61,8.08,8.08,0,0,1-1.18-.67c-.27-.15-.53-.32-.8-.48l-.39-.26a6.83,6.83,0,0,1-.9-.61c-.41-.3-.83-.61-1.26-1s-.69-.54-1-.86a27.07,27.07,0,0,1-3.7-3.93,24.13,24.13,0,0,1-1.75-2.48c-.18-.29-.35-.59-.53-.89h0A19.13,19.13,0,0,1,197,64.5c-.2-.41-.35-.83-.52-1.25s-.33-.86-.49-1.29-.29-.88-.42-1.35a7.58,7.58,0,0,1-.35-1.33c-.11-.43-.22-.88-.31-1.36s-.16-.91-.21-1.37l-.22-2.2h14.39c0,.19.06.37.1.55a1.05,1.05,0,0,0,.05.26,4.09,4.09,0,0,0,.13.55,3.39,3.39,0,0,0,.2.75,4.47,4.47,0,0,1,.16.55,12.83,12.83,0,0,0,1.07,2.38,5.56,5.56,0,0,0,.6,1,5.34,5.34,0,0,0,.67.91,6.28,6.28,0,0,0,.72.84,7.68,7.68,0,0,0,.94.95,12.54,12.54,0,0,0,2.43,1.77,7.27,7.27,0,0,0,1,.55,14.29,14.29,0,0,0,6.35,1.47,14.57,14.57,0,0,0,14.55-14.56V12.74h-25Zm20.86,12.74V31.49h-39.3V4.13h14.31V16.87Zm0,18.75V52.28a10.43,10.43,0,0,1-20.86,0V35.62ZM175.38,4.13h14.86V35.62h18.45v14.6H175.38Zm95.79,49.29A46.58,46.58,0,0,1,224.63,100h-2.76a46.6,46.6,0,0,1-46.49-45.61h14.93v0c0,.22,0,.45,0,.68l.09.86c.08.88.22,1.72.36,2.58l.36,1.66a13.66,13.66,0,0,0,.42,1.53c.09.35.19.68.3,1l.09.3c.18.56.39,1.13.63,1.69l.61,1.41c.47,1,.94,2,1.42,2.8l.21.34c.19.34.4.67.59,1a11.74,11.74,0,0,0,.87,1.28,27.16,27.16,0,0,0,2,2.55c.32.37.63.73,1,1.06s.85.88,1.27,1.29.63.62.94.87a36.62,36.62,0,0,0,3.9,3l1.48.89c.35.2.67.38,1,.55.83.44,1.73.86,2.85,1.34A30.21,30.21,0,0,0,217,85c.48.09.94.18,1.39.23a29.59,29.59,0,0,0,4.92.38,33,33,0,0,0,33-33V4.13h14.91Z" style="fill: #c49455"/>
          <path d="M200.51,70.3a24.13,24.13,0,0,1-1.75-2.48C199.32,68.69,199.9,69.51,200.51,70.3Z" style="fill: #c49455"/>
        </g>
        <g>
          <g>
            <path d="M186.63,214.85h-8.22L176.82,219h-1.31l6.37-16.39h1.31L189.53,219h-1.31Zm-.44-1.17-3.66-9.53-3.65,9.53Z" style="fill: #c49455"/>
            <path d="M203.16,203.8H198V219h-1.26V203.8H191.6v-1.17h11.56Z" style="fill: #c49455"/>
            <path d="M217.51,217.85V219h-9.43V202.63h9.32v1.17h-8.08v6.37h7.49v1.17h-7.49v6.51Z" style="fill: #c49455"/>
            <path d="M231.86,217.85V219h-9V202.63h1.24v15.22Z" style="fill: #c49455"/>
            <path d="M238,202.63V219h-1.24V202.63Z" style="fill: #c49455"/>
            <path d="M253.87,217.85V219h-9.43V202.63h9.32v1.17h-8.08v6.37h7.49v1.17h-7.49v6.51Z" style="fill: #c49455"/>
            <path d="M265.67,212.3H260.5V219h-1.24V202.63h6.46a4.83,4.83,0,0,1,1.24,9.5L271,219h-1.42Zm-5.17-1.17h5.22a3.67,3.67,0,0,0,0-7.33H260.5Z" style="fill: #c49455"/>
          </g>
          <g>
            <path d="M33.43,184.48H0v-2.23H5.53V140.88H0v-2.23H16.84v2.23h-5.5v41.37h9.47a18.52,18.52,0,0,0,5.7-.7,5.86,5.86,0,0,0,3.08-2.14,8.15,8.15,0,0,0,1.28-3.6,37.77,37.77,0,0,0,.29-5.08h2.27Z" style="fill: #c49455"/>
            <path d="M51,169.77a3.6,3.6,0,0,1,1.09-2.62,3.65,3.65,0,0,1,5.18,0,3.62,3.62,0,0,1,1.07,2.62,3.67,3.67,0,0,1-3.67,3.66A3.71,3.71,0,0,1,51,169.77Z" style="fill: #c49455"/>
            <path d="M79.65,138.65H99.48v2.23H93.37v33.21c-.3,1.08-.71,2.32-1.22,3.7a22.41,22.41,0,0,1-2,4,10.83,10.83,0,0,1-3,3.24,8.39,8.39,0,0,1-8.46.28,7,7,0,0,1-2.52-2.54,6,6,0,0,1-.88-3.05,4,4,0,0,1,1-2.95,3.41,3.41,0,0,1,2.45-1,3.81,3.81,0,0,1,2.3.85,3.14,3.14,0,0,1,1.15,2.73,3.09,3.09,0,0,1-.93,2.46,3.64,3.64,0,0,1-2.19.9,5.25,5.25,0,0,0,6.62.32,5.88,5.88,0,0,0,1.5-3.47,46.35,46.35,0,0,0,.38-6.69v-32H79.65Z" style="fill: #c49455"/>
            <path d="M136.18,185.09a18.27,18.27,0,0,1-8.28-1.81,17.68,17.68,0,0,1-6.14-5.06,23.28,23.28,0,0,1-3.81-7.5,31.42,31.42,0,0,1-1.3-9.15,29.52,29.52,0,0,1,1.38-9.15,23.17,23.17,0,0,1,4-7.5,18.42,18.42,0,0,1,6.17-5.06,18.6,18.6,0,0,1,16.05,0,18.26,18.26,0,0,1,6.18,5.06,23.54,23.54,0,0,1,4,7.5,29.23,29.23,0,0,1,1.39,9.15,31.09,31.09,0,0,1-1.3,9.15,22.89,22.89,0,0,1-3.81,7.5,18,18,0,0,1-6.16,5.06A18.33,18.33,0,0,1,136.18,185.09Zm0-45a10.29,10.29,0,0,0-6.2,1.77,11.77,11.77,0,0,0-3.82,4.81,25.46,25.46,0,0,0-1.94,6.89,54.72,54.72,0,0,0-.57,8,66.57,66.57,0,0,0,.47,8,24.57,24.57,0,0,0,1.81,6.89,11.28,11.28,0,0,0,3.8,4.81,12.63,12.63,0,0,0,12.93,0,11.17,11.17,0,0,0,3.78-4.81,25.27,25.27,0,0,0,1.81-6.89,64.49,64.49,0,0,0,.49-8,54.72,54.72,0,0,0-.57-8,25.83,25.83,0,0,0-1.95-6.89,12,12,0,0,0-3.84-4.81A10.31,10.31,0,0,0,136.18,140.09Z" style="fill: #c49455"/>
            <path d="M173.52,182.25h5.53V140.88h-5.53v-2.23h17.41v2.23h-6.08v19.86H205V140.88h-6.11v-2.23h17.41v2.23h-5.47v41.37h5.47v2.23H198.88v-2.23H205V163H184.85v19.25h6.08v2.23H173.52Z" style="fill: #c49455"/>
            <path d="M233.77,182.25h6.44V140.88h-6.44v-2.23h14.17l21.58,36.24v-34h-6.76v-2.23h15.52v2.23h-6.44v44.21h-3.15l-26.15-43.72v40.88h7.05v2.23H233.77Z" style="fill: #c49455"/>
            <path d="M298.57,185.09h-1.89V172.54h2.2a13.35,13.35,0,0,0,4.26,7.51,12.84,12.84,0,0,0,8.91,3q4.86,0,7.54-2.28a7.87,7.87,0,0,0,2.69-6.37,7.59,7.59,0,0,0-1.3-4.52,11.63,11.63,0,0,0-3.43-3.16,35.85,35.85,0,0,0-4.71-2.45q-2.56-1.11-5.13-2.34a26.34,26.34,0,0,1-4.71-2.85,12.65,12.65,0,0,1-3.43-4,11.68,11.68,0,0,1-1.3-5.74,10.54,10.54,0,0,1,1.66-5.93,11.3,11.3,0,0,1,4.54-4A14.35,14.35,0,0,1,311,138a13.88,13.88,0,0,1,10,3.76l2.41-3.76h1.9V150.6h-2.2A12.05,12.05,0,0,0,319,143a11.51,11.51,0,0,0-7.45-2.53c-2.92,0-5.11.65-6.59,1.94a6.5,6.5,0,0,0-2.21,5.12,6.41,6.41,0,0,0,1.3,4.08,11.63,11.63,0,0,0,3.43,2.9,43.6,43.6,0,0,0,4.69,2.33c1.7.72,3.41,1.5,5.11,2.33A26.36,26.36,0,0,1,322,162.1a13,13,0,0,1,3.43,4.16,12.67,12.67,0,0,1,1.3,6,12.52,12.52,0,0,1-3.77,9.53q-3.78,3.59-10.25,3.58a17.79,17.79,0,0,1-6.72-1.19,14.68,14.68,0,0,1-5-3.27Z" style="fill: #c49455"/>
            <path d="M364.69,185.09a18.27,18.27,0,0,1-8.28-1.81,17.77,17.77,0,0,1-6.14-5.06,23.06,23.06,0,0,1-3.8-7.5,31.09,31.09,0,0,1-1.3-9.15,29.82,29.82,0,0,1,1.37-9.15,23.37,23.37,0,0,1,4-7.5,18.52,18.52,0,0,1,6.17-5.06,18.62,18.62,0,0,1,16.06,0,18.33,18.33,0,0,1,6.17,5.06,23.76,23.76,0,0,1,4,7.5,29.52,29.52,0,0,1,1.39,9.15,31.42,31.42,0,0,1-1.3,9.15,23.1,23.1,0,0,1-3.82,7.5,17.93,17.93,0,0,1-6.16,5.06A18.27,18.27,0,0,1,364.69,185.09Zm0-45a10.31,10.31,0,0,0-6.2,1.77,11.86,11.86,0,0,0-3.82,4.81,25.83,25.83,0,0,0-1.94,6.89,54.72,54.72,0,0,0-.57,8,64.53,64.53,0,0,0,.48,8,24.23,24.23,0,0,0,1.8,6.89,11.36,11.36,0,0,0,3.8,4.81,12.63,12.63,0,0,0,12.93,0,11.26,11.26,0,0,0,3.79-4.81,25.63,25.63,0,0,0,1.8-6.89,62.62,62.62,0,0,0,.49-8,54.72,54.72,0,0,0-.57-8,25.47,25.47,0,0,0-1.95-6.89,12,12,0,0,0-3.84-4.81A10.29,10.29,0,0,0,364.69,140.09Z" style="fill: #c49455"/>
            <path d="M402,182.25h6.44V140.88H402v-2.23H416.2l21.58,36.24v-34H431v-2.23h15.52v2.23H440.1v44.21H437L410.8,141.37v40.88h7.05v2.23H402Z" style="fill: #c49455"/>
          </g>
        </g>
      </g>
    </g>
  </g>
</svg>
